<?xml version="1.0" encoding="utf-8"?>
<!-- Generator: Adobe Illustrator 17.1.0, SVG Export Plug-In . SVG Version: 6.00 Build 0)  -->
<!DOCTYPE svg PUBLIC "-//W3C//DTD SVG 1.1//EN" "http://www.w3.org/Graphics/SVG/1.1/DTD/svg11.dtd">
<svg version="1.1" id="Layer_1" xmlns="http://www.w3.org/2000/svg" xmlns:xlink="http://www.w3.org/1999/xlink" x="0px" y="0px"
	 viewBox="0 0 213.1 61.3" enable-background="new 0 0 213.1 61.3" xml:space="preserve">
<g>
	<g>
		<path d="M2.9,56.5V4.7c0-0.9-0.2-1.6-0.6-2.1C1.8,2.1,1.1,1.7,0,1.4V0h34.2c7.5,0,13.2,0.9,17.2,2.6c5.7,2.5,10,6.6,12.7,12.3
			c2.2,4.5,3.3,9.7,3.3,15.7c0,10.6-3.2,18.6-9.7,24.1c-2.7,2.3-5.9,4-9.6,5c-3.7,1-8.3,1.5-14,1.5H0v-1.4c1.1-0.3,1.8-0.7,2.2-1.2
			C2.7,58.2,2.9,57.4,2.9,56.5z M16.2,51.1H33c5.4,0,9.4-0.7,12.1-2.2c5.8-3.1,8.7-9.3,8.7-18.3c0-6.6-1.6-11.6-4.7-15.1
			c-1.7-1.9-3.8-3.3-6.3-4.1c-2.5-0.8-5.7-1.2-9.8-1.2H16.2V51.1z"/>
		<path d="M99,38.5h-19l-2.8,5.9c-0.4,0.8-0.6,1.5-0.6,1.9c0,0.9,0.7,1.5,2,1.9v1H64.9v-1c0.8-0.2,1.4-0.4,1.9-0.9
			c0.4-0.4,0.9-1.2,1.5-2.4l15.3-32.1c0.5-1,0.7-1.8,0.7-2.4c0-0.9-0.6-1.6-1.8-2v-1h14.8v1c-1.2,0.3-1.8,0.9-1.8,1.8
			c0,0.6,0.2,1.3,0.6,2L112,44.4c0.7,1.4,1.3,2.3,1.8,2.8c0.5,0.5,1.2,0.8,2,1v1h-15.4v-1c1.3-0.2,2-0.9,2-1.9
			c0-0.4-0.2-1.1-0.6-1.9L99,38.5z M96.4,32.8l-6.8-14.9l-6.9,14.9H96.4z"/>
		<path d="M128.8,32.1V46c0,0.6,0.1,1.1,0.4,1.4c0.3,0.3,0.8,0.6,1.5,0.8v1h-13v-1c0.7-0.2,1.2-0.5,1.5-0.8s0.4-0.8,0.4-1.4V10.6
			c0-0.6-0.1-1.1-0.4-1.4c-0.3-0.3-0.8-0.6-1.5-0.8v-1h26.1c3.2,0,5.7,0.2,7.6,0.6c1.9,0.4,3.5,1,4.9,1.9c1.6,1.1,2.8,2.5,3.6,4.3
			c0.8,1.8,1.1,3.6,1.1,5.6c0,6.8-3.8,10.8-11.3,12l8.1,11.5c1.4,2,2.5,3.3,3.1,3.9c0.7,0.6,1.5,0.9,2.4,1v1h-15.1v-1
			c1-0.2,1.6-0.5,1.6-1.1c0-0.4-0.5-1.3-1.4-2.7l-8.5-12.3H128.8z M128.8,25.2h14.1c2.1,0,3.5-0.1,4.4-0.2c0.9-0.1,1.6-0.4,2.4-0.8
			c1.5-0.8,2.3-2.3,2.3-4.5c0-2.2-0.8-3.7-2.3-4.5c-0.7-0.4-1.5-0.7-2.3-0.8c-0.8-0.1-2.3-0.2-4.4-0.2h-14.1V25.2z"/>
		<path d="M184,29.7l-6.3,5.1v11.2c0,0.6,0.1,1.1,0.4,1.5c0.3,0.3,0.8,0.6,1.5,0.8v1h-13v-1c0.7-0.2,1.2-0.5,1.5-0.8
			s0.4-0.8,0.4-1.4V10.6c0-0.6-0.1-1.1-0.4-1.4c-0.3-0.3-0.8-0.6-1.5-0.8v-1h13v1c-0.7,0.2-1.2,0.4-1.5,0.8
			c-0.3,0.3-0.4,0.8-0.4,1.4v14.6l17.2-14c0.8-0.7,1.2-1.2,1.2-1.6c0-0.6-0.6-1-1.8-1.2v-1h17.1v1c-0.7,0.1-1.2,0.3-1.5,0.5
			c-0.3,0.2-1.2,0.9-2.7,2.1l-2.4,2l-14.2,11.4l16.1,19.4c1.5,1.8,2.6,3,3.2,3.5c0.7,0.5,1.5,0.9,2.5,1v1h-16.3v-1
			c1.1-0.2,1.6-0.6,1.6-1.2c0-0.3-0.5-1-1.5-2.3L184,29.7z"/>
	</g>
	<g>
		<path d="M159.8,59.5l1.2-0.3c0.1,0.7,0.7,1,1.7,1c0.4,0,0.8-0.1,1-0.3c0.2-0.2,0.4-0.4,0.4-0.7c0-0.2-0.1-0.4-0.2-0.5
			c-0.1-0.2-0.3-0.3-0.7-0.4l-1.3-0.3c-0.5-0.1-0.8-0.3-1-0.4c-0.2-0.2-0.4-0.4-0.5-0.6c-0.1-0.3-0.2-0.6-0.2-0.9
			c0-0.6,0.2-1.1,0.7-1.5c0.5-0.4,1.1-0.6,1.8-0.6c0.6,0,1.1,0.1,1.6,0.4c0.5,0.3,0.8,0.6,0.9,1.1l-1.2,0.3
			c-0.2-0.5-0.6-0.8-1.3-0.8c-0.4,0-0.7,0.1-0.9,0.2c-0.2,0.2-0.3,0.4-0.3,0.6c0,0.4,0.3,0.7,1,0.8l1.2,0.3c0.7,0.2,1.2,0.4,1.5,0.8
			c0.2,0.4,0.4,0.7,0.4,1.2c0,0.7-0.3,1.2-0.8,1.6c-0.5,0.4-1.2,0.6-2,0.6c-0.7,0-1.3-0.1-1.8-0.4C160.3,60.6,159.9,60.2,159.8,59.5
			z"/>
		<path d="M172.6,56.1l-1.5,5.2h-1.1l-0.9-3.6l-0.9,3.6h-1.1l-1.6-5.2h1.2l1,3.5l0.9-3.5h1.1l0.9,3.5l1-3.5H172.6z"/>
		<path d="M176.4,59.6l1.1,0.1c-0.1,0.5-0.4,0.9-0.8,1.2s-0.9,0.5-1.5,0.5c-0.7,0-1.3-0.2-1.7-0.7s-0.7-1.1-0.7-2
			c0-0.8,0.2-1.4,0.7-1.9s1-0.8,1.8-0.8c0.7,0,1.3,0.3,1.7,0.8s0.6,1.2,0.6,1.9l0,0.1H174c0,0.4,0,0.6,0.1,0.8
			c0.1,0.2,0.2,0.4,0.4,0.6c0.2,0.2,0.4,0.2,0.7,0.2C175.8,60.4,176.2,60.1,176.4,59.6z M176.3,58c0-0.4-0.1-0.7-0.3-0.9
			c-0.2-0.2-0.5-0.4-0.8-0.4c-0.3,0-0.6,0.1-0.8,0.3c-0.2,0.2-0.3,0.5-0.4,0.9H176.3z"/>
		<path d="M182.8,61.2h-1.1c-0.1-0.3-0.2-0.7-0.2-1c-0.3,0.8-0.9,1.2-1.8,1.2c-0.5,0-0.9-0.2-1.2-0.5c-0.3-0.3-0.5-0.7-0.5-1.1
			c0-1.2,1-1.8,3.1-1.8c0.1,0,0.2,0,0.3,0v-0.4c0-0.5-0.4-0.8-1.1-0.8c-0.7,0-1.1,0.3-1.2,0.8l-1-0.1c0.1-0.4,0.3-0.8,0.7-1.1
			c0.4-0.3,1-0.4,1.7-0.4c0.4,0,0.7,0,1,0.1c0.3,0.1,0.5,0.2,0.6,0.3c0.2,0.2,0.3,0.3,0.4,0.5c0.1,0.2,0.1,0.5,0.1,0.9v2.3
			C182.6,60.5,182.7,60.9,182.8,61.2z M181.5,58.6c-1.5,0-2.3,0.4-2.3,1.1c0,0.2,0.1,0.4,0.2,0.6c0.2,0.2,0.4,0.2,0.7,0.2
			c0.4,0,0.8-0.1,1-0.4c0.2-0.3,0.3-0.6,0.3-1V58.6z"/>
		<path d="M186.1,60.3v0.9c-0.3,0.1-0.6,0.1-0.8,0.1c-0.3,0-0.6-0.1-0.8-0.2c-0.2-0.1-0.4-0.3-0.5-0.5c-0.1-0.2-0.2-0.6-0.2-1V57
			h-0.6v-0.9h0.7l0.1-1.3l1-0.1v1.4h1V57h-1v2.5c0,0.3,0.1,0.5,0.2,0.7c0.1,0.1,0.3,0.2,0.7,0.2C185.9,60.3,186,60.3,186.1,60.3z"/>
		<path d="M190,59.6l1.1,0.1c-0.1,0.5-0.4,0.9-0.8,1.2s-0.9,0.5-1.5,0.5c-0.7,0-1.3-0.2-1.7-0.7s-0.7-1.1-0.7-2
			c0-0.8,0.2-1.4,0.7-1.9s1-0.8,1.8-0.8c0.7,0,1.3,0.3,1.7,0.8s0.6,1.2,0.6,1.9l0,0.1h-3.6c0,0.4,0,0.6,0.1,0.8
			c0.1,0.2,0.2,0.4,0.4,0.6c0.2,0.2,0.4,0.2,0.7,0.2C189.4,60.4,189.8,60.1,190,59.6z M189.9,58c0-0.4-0.1-0.7-0.3-0.9
			c-0.2-0.2-0.5-0.4-0.8-0.4c-0.3,0-0.6,0.1-0.8,0.3c-0.2,0.2-0.3,0.5-0.4,0.9H189.9z"/>
		<path d="M193.1,61.2h-1.2v-5.2h1.1v1.2c0.2-0.5,0.4-0.8,0.6-1.1c0.3-0.2,0.5-0.3,0.8-0.3c0,0,0.1,0,0.2,0v1.3
			c-0.6,0-1,0.2-1.2,0.6c-0.2,0.4-0.3,0.7-0.3,1.1V61.2z"/>
		<path d="M194.6,60l1.1-0.2c0.2,0.4,0.5,0.6,1.1,0.6c0.7,0,1.1-0.2,1.1-0.6c0-0.1-0.1-0.2-0.2-0.3s-0.2-0.1-0.4-0.2l-0.9-0.2
			c-1-0.2-1.6-0.7-1.6-1.5c0-0.5,0.2-0.8,0.5-1.2c0.3-0.3,0.8-0.5,1.5-0.5c1.1,0,1.8,0.4,2,1.2l-1,0.2c-0.1-0.4-0.4-0.6-0.9-0.6
			c-0.6,0-0.9,0.2-0.9,0.6c0,0.3,0.3,0.5,0.8,0.6l1.1,0.2c0.9,0.2,1.3,0.7,1.3,1.5c0,0.6-0.2,1-0.7,1.3c-0.4,0.3-1,0.4-1.6,0.4
			c-0.5,0-1-0.1-1.4-0.3C195,60.8,194.7,60.5,194.6,60z"/>
		<path d="M205,59.3l1,0.1c-0.1,0.6-0.4,1.1-0.8,1.4s-0.8,0.5-1.3,0.5c-0.7,0-1.3-0.3-1.6-0.8c-0.4-0.5-0.6-1.2-0.6-1.9
			c0-0.8,0.2-1.4,0.6-1.9s1-0.8,1.7-0.8c1.1,0,1.8,0.6,2,1.8l-1,0.1c-0.1-0.6-0.4-1-0.9-1c-0.4,0-0.7,0.2-0.9,0.5
			c-0.2,0.3-0.3,0.8-0.3,1.3c0,0.5,0.1,0.9,0.3,1.2c0.2,0.3,0.4,0.4,0.8,0.4C204.5,60.3,204.9,60,205,59.3z"/>
		<path d="M208.7,61.3c-0.8,0-1.4-0.3-1.8-0.8s-0.6-1.2-0.6-1.9c0-0.8,0.2-1.4,0.7-1.9s1-0.8,1.8-0.8c0.7,0,1.3,0.2,1.7,0.7
			c0.4,0.5,0.7,1.1,0.7,1.9c0,0.8-0.2,1.5-0.7,2C210,61.1,209.4,61.3,208.7,61.3z M208.7,60.4c0.8,0,1.2-0.6,1.2-1.8
			c0-0.5-0.1-0.9-0.3-1.3c-0.2-0.3-0.5-0.5-0.9-0.5c-0.4,0-0.7,0.2-0.9,0.5s-0.3,0.7-0.3,1.3c0,0.6,0.1,1,0.3,1.3
			C208.1,60.2,208.4,60.4,208.7,60.4z"/>
		<path d="M213.1,59.9v1.3h-1.3v-1.3H213.1z"/>
	</g>
</g>
</svg>
