<?xml version="1.0" encoding="utf-8"?>
<!-- Generator: Adobe Illustrator 17.1.0, SVG Export Plug-In . SVG Version: 6.00 Build 0)  -->
<!DOCTYPE svg PUBLIC "-//W3C//DTD SVG 1.1//EN" "http://www.w3.org/Graphics/SVG/1.1/DTD/svg11.dtd">
<svg version="1.1" id="Layer_1" xmlns="http://www.w3.org/2000/svg" xmlns:xlink="http://www.w3.org/1999/xlink" x="0px" y="0px"
	 viewBox="0 498.1 792 228.2" enable-background="new 0 498.1 792 228.2" xml:space="preserve">
<g>
	<g>
		<path d="M10.8,708.1V515.6c0-3.3-0.7-5.9-2.2-7.8c-1.9-1.9-4.5-3.3-8.5-4.5v-5.2h127.1c27.9,0,49.1,3.3,63.9,9.7
			c21.2,9.3,37.2,24.5,47.2,45.7c8.2,16.7,12.3,36.1,12.3,58.4c0,39.4-11.9,69.1-36.1,89.6c-10,8.5-21.9,14.9-35.7,18.6
			c-13.8,3.7-30.8,5.6-52,5.6H0v-5.2c4.1-1.1,6.7-2.6,8.2-4.5C10,714.4,10.8,711.4,10.8,708.1z M60.2,688h62.4
			c20.1,0,34.9-2.6,45-8.2c21.6-11.5,32.3-34.6,32.3-68c0-24.5-5.9-43.1-17.5-56.1c-6.3-7.1-14.1-12.3-23.4-15.2s-21.2-4.5-36.4-4.5
			H60.2V688z"/>
		<path d="M367.9,641.2h-70.6l-10.4,21.9c-1.5,3-2.2,5.6-2.2,7.1c0,3.3,2.6,5.6,7.4,7.1v3.7h-50.9v-3.7c3-0.7,5.2-1.5,7.1-3.3
			c1.5-1.5,3.3-4.5,5.6-8.9l56.9-119.3c1.9-3.7,2.6-6.7,2.6-8.9c0-3.3-2.2-5.9-6.7-7.4v-3.7h55v3.7c-4.5,1.1-6.7,3.3-6.7,6.7
			c0,2.2,0.7,4.8,2.2,7.4l59.1,119.7c2.6,5.2,4.8,8.5,6.7,10.4s4.5,3,7.4,3.7v3.7h-57.2v-3.7c4.8-0.7,7.4-3.3,7.4-7.1
			c0-1.5-0.7-4.1-2.2-7.1L367.9,641.2z M358.3,620L333,564.6L307.4,620H358.3z"/>
		<path d="M478.7,617.4V669c0,2.2,0.4,4.1,1.5,5.2c1.1,1.1,3,2.2,5.6,3v3.7h-48.3v-3.7c2.6-0.7,4.5-1.9,5.6-3c1.1-1.1,1.5-3,1.5-5.2
			V537.5c0-2.2-0.4-4.1-1.5-5.2c-1.1-1.1-3-2.2-5.6-3v-3.7h97c11.9,0,21.2,0.7,28.2,2.2c7.1,1.5,13,3.7,18.2,7.1
			c5.9,4.1,10.4,9.3,13.4,16s4.1,13.4,4.1,20.8c0,25.3-14.1,40.1-42,44.6l30.1,42.7c5.2,7.4,9.3,12.3,11.5,14.5
			c2.6,2.2,5.6,3.3,8.9,3.7v3.7h-56.1v-3.7c3.7-0.7,5.9-1.9,5.9-4.1c0-1.5-1.9-4.8-5.2-10l-31.6-45.7H478.7L478.7,617.4z
			 M478.7,591.7h52.4c7.8,0,13-0.4,16.4-0.7c3.3-0.4,5.9-1.5,8.9-3c5.6-3,8.5-8.5,8.5-16.7s-3-13.8-8.5-16.7c-2.6-1.5-5.6-2.6-8.5-3
			c-3-0.4-8.5-0.7-16.4-0.7h-52.4v40.9H478.7z"/>
		<path d="M683.8,608.5l-23.4,19V669c0,2.2,0.4,4.1,1.5,5.6c1.1,1.1,3,2.2,5.6,3v3.7h-48.3v-3.7c2.6-0.7,4.5-1.9,5.6-3
			c1.1-1.1,1.5-3,1.5-5.2V537.5c0-2.2-0.4-4.1-1.5-5.2c-1.1-1.1-3-2.2-5.6-3v-3.7h48.3v3.7c-2.6,0.7-4.5,1.5-5.6,3
			c-1.1,1.1-1.5,3-1.5,5.2v54.3l63.9-52c3-2.6,4.5-4.5,4.5-5.9c0-2.2-2.2-3.7-6.7-4.5v-3.7h63.6v3.7c-2.6,0.4-4.5,1.1-5.6,1.9
			c-1.1,0.7-4.5,3.3-10,7.8l-8.9,7.4l-52.8,42.4l59.8,72.1c5.6,6.7,9.7,11.1,11.9,13c2.6,1.9,5.6,3.3,9.3,3.7v3.7h-60.6v-3.7
			c4.1-0.7,5.9-2.2,5.9-4.5c0-1.1-1.9-3.7-5.6-8.5L683.8,608.5z"/>
	</g>
	<g>
		<path d="M593.9,719.2l4.5-1.1c0.4,2.6,2.6,3.7,6.3,3.7c1.5,0,3-0.4,3.7-1.1c0.7-0.7,1.5-1.5,1.5-2.6c0-0.7-0.4-1.5-0.7-1.9
			c-0.4-0.7-1.1-1.1-2.6-1.5l-4.8-1.1c-1.9-0.4-3-1.1-3.7-1.5c-0.7-0.7-1.5-1.5-1.9-2.2c-0.4-1.1-0.7-2.2-0.7-3.3
			c0-2.2,0.7-4.1,2.6-5.6c1.9-1.5,4.1-2.2,6.7-2.2c2.2,0,4.1,0.4,5.9,1.5c1.9,1.1,3,2.2,3.3,4.1l-4.5,1.1c-0.7-1.9-2.2-3-4.8-3
			c-1.5,0-2.6,0.4-3.3,0.7c-0.7,0.7-1.1,1.5-1.1,2.2c0,1.5,1.1,2.6,3.7,3l4.5,1.1c2.6,0.7,4.5,1.5,5.6,3c0.7,1.5,1.5,2.6,1.5,4.5
			c0,2.6-1.1,4.5-3,5.9s-4.5,2.2-7.4,2.2c-2.6,0-4.8-0.4-6.7-1.5C595.8,723.3,594.3,721.8,593.9,719.2z"/>
		<path d="M641.5,706.6l-5.6,19.3h-4.1l-3.3-13.4l-3.3,13.4H621l-5.9-19.3h4.5l3.7,13l3.3-13h4.1l3.3,13l3.7-13H641.5z"/>
		<path d="M655.6,719.6l4.1,0.4c-0.4,1.9-1.5,3.3-3,4.5c-1.5,1.1-3.3,1.9-5.6,1.9c-2.6,0-4.8-0.7-6.3-2.6c-1.5-1.9-2.6-4.1-2.6-7.4
			c0-3,0.7-5.2,2.6-7.1c1.9-1.9,3.7-3,6.7-3c2.6,0,4.8,1.1,6.3,3c1.5,1.9,2.2,4.5,2.2,7.1v0.4h-13.4c0,1.5,0,2.2,0.4,3
			c0.4,0.7,0.7,1.5,1.5,2.2s1.5,0.7,2.6,0.7C653.4,722.6,654.9,721.5,655.6,719.6z M655.2,713.6c0-1.5-0.4-2.6-1.1-3.3
			c-0.7-0.7-1.9-1.5-3-1.5s-2.2,0.4-3,1.1c-0.7,0.7-1.1,1.9-1.5,3.3h8.5V713.6z"/>
		<path d="M679.4,725.5h-4.1c-0.4-1.1-0.7-2.6-0.7-3.7c-1.1,3-3.3,4.5-6.7,4.5c-1.9,0-3.3-0.7-4.5-1.9c-1.1-1.1-1.9-2.6-1.9-4.1
			c0-4.5,3.7-6.7,11.5-6.7c0.4,0,0.7,0,1.1,0v-1.5c0-1.9-1.5-3-4.1-3s-4.1,1.1-4.5,3l-3.7-0.4c0.4-1.5,1.1-3,2.6-4.1
			c1.5-1.1,3.7-1.5,6.3-1.5c1.5,0,2.6,0,3.7,0.4c1.1,0.4,1.9,0.7,2.2,1.1c0.7,0.7,1.1,1.1,1.5,1.9c0.4,0.7,0.4,1.9,0.4,3.3v8.5
			C678.6,722.9,679,724.4,679.4,725.5z M674.6,715.9c-5.6,0-8.5,1.5-8.5,4.1c0,0.7,0.4,1.5,0.7,2.2c0.7,0.7,1.5,0.7,2.6,0.7
			c1.5,0,3-0.4,3.7-1.5c0.7-1.1,1.1-2.2,1.1-3.7v-1.9H674.6z"/>
		<path d="M691.7,722.2v3.3c-1.1,0.4-2.2,0.4-3,0.4c-1.1,0-2.2-0.4-3-0.7c-0.7-0.4-1.5-1.1-1.9-1.9c-0.4-0.7-0.7-2.2-0.7-3.7v-9.7
			h-2.2v-3.3h2.6l0.4-4.8l3.7-0.4v5.2h3.7v3.3h-3.7v9.3c0,1.1,0.4,1.9,0.7,2.6c0.4,0.4,1.1,0.7,2.6,0.7
			C690.9,722.2,691.3,722.2,691.7,722.2z"/>
		<path d="M706.1,719.6l4.1,0.4c-0.4,1.9-1.5,3.3-3,4.5c-1.5,1.1-3.3,1.9-5.6,1.9c-2.6,0-4.8-0.7-6.3-2.6c-1.5-1.9-2.6-4.1-2.6-7.4
			c0-3,0.7-5.2,2.6-7.1s3.7-3,6.7-3c2.6,0,4.8,1.1,6.3,3c1.5,1.9,2.2,4.5,2.2,7.1v0.4h-13.4c0,1.5,0,2.2,0.4,3
			c0.4,0.7,0.7,1.5,1.5,2.2s1.5,0.7,2.6,0.7C703.9,722.6,705.4,721.5,706.1,719.6z M705.8,713.6c0-1.5-0.4-2.6-1.1-3.3
			c-0.7-0.7-1.9-1.5-3-1.5c-1.1,0-2.2,0.4-3,1.1c-0.7,0.7-1.1,1.9-1.5,3.3h8.5V713.6z"/>
		<path d="M717.7,725.5h-4.5v-19.3h4.1v4.5c0.7-1.9,1.5-3,2.2-4.1c1.1-0.7,1.9-1.1,3-1.1c0,0,0.4,0,0.7,0v4.8
			c-2.2,0-3.7,0.7-4.5,2.2s-1.1,2.6-1.1,4.1L717.7,725.5L717.7,725.5z"/>
		<path d="M723.2,721.1l4.1-0.7c0.7,1.5,1.9,2.2,4.1,2.2c2.6,0,4.1-0.7,4.1-2.2c0-0.4-0.4-0.7-0.7-1.1c-0.4-0.4-0.7-0.4-1.5-0.7
			l-3.3-0.7c-3.7-0.7-5.9-2.6-5.9-5.6c0-1.9,0.7-3,1.9-4.5c1.1-1.1,3-1.9,5.6-1.9c4.1,0,6.7,1.5,7.4,4.5l-3.7,0.7
			c-0.4-1.5-1.5-2.2-3.3-2.2c-2.2,0-3.3,0.7-3.3,2.2c0,1.1,1.1,1.9,3,2.2l4.1,0.7c3.3,0.7,4.8,2.6,4.8,5.6c0,2.2-0.7,3.7-2.6,4.8
			c-1.5,1.1-3.7,1.5-5.9,1.5c-1.9,0-3.7-0.4-5.2-1.1C724.7,724.1,723.6,722.9,723.2,721.1z"/>
		<path d="M761.9,718.5l3.7,0.4c-0.4,2.2-1.5,4.1-3,5.2c-1.5,1.1-3,1.9-4.8,1.9c-2.6,0-4.8-1.1-5.9-3c-1.5-1.9-2.2-4.5-2.2-7.1
			c0-3,0.7-5.2,2.2-7.1c1.5-1.9,3.7-3,6.3-3c4.1,0,6.7,2.2,7.4,6.7l-3.7,0.4c-0.4-2.2-1.5-3.7-3.3-3.7c-1.5,0-2.6,0.7-3.3,1.9
			c-0.7,1.1-1.1,3-1.1,4.8c0,1.9,0.4,3.3,1.1,4.5c0.7,1.1,1.5,1.5,3,1.5C760,722.2,761.5,721.1,761.9,718.5z"/>
		<path d="M775.6,725.9c-3,0-5.2-1.1-6.7-3c-1.5-1.9-2.2-4.5-2.2-7.1c0-3,0.7-5.2,2.6-7.1c1.9-1.9,3.7-3,6.7-3
			c2.6,0,4.8,0.7,6.3,2.6s2.6,4.1,2.6,7.1c0,3-0.7,5.6-2.6,7.4C780.5,725.2,778.2,725.9,775.6,725.9z M775.6,722.6
			c3,0,4.5-2.2,4.5-6.7c0-1.9-0.4-3.3-1.1-4.8c-0.7-1.1-1.9-1.9-3.3-1.9c-1.5,0-2.6,0.7-3.3,1.9c-0.7,1.1-1.1,2.6-1.1,4.8
			s0.4,3.7,1.1,4.8C773.4,721.8,774.5,722.6,775.6,722.6z"/>
		<path d="M792,720.7v4.8h-4.8v-4.8H792z"/>
	</g>
</g>
</svg>
